<svg xmlns="http://www.w3.org/2000/svg" xmlns:xlink="http://www.w3.org/1999/xlink" xmlns:s="https://github.com/nturley/netlistsvg" width="560" height="352">
  <style>svg {
    stroke:#000;
    fill:none;
  }
  text {
    fill:#000;
    stroke:none;
    font-size:10px;
    font-weight: bold;
    font-family: "Courier New", monospace;
  }
  .nodelabel {
    text-anchor: middle;
  }
  .inputPortLabel {
    text-anchor: end;
  }
  .splitjoinBody {
    fill:#000;
  }</style>
  <g s:type="generic" transform="translate(185,129.5)" s:width="30" s:height="40" id="cell_u_light_controller">
    <text x="15" y="-4" class="nodelabel cell_u_light_controller" s:attribute="ref">light_controller</text>
    <rect width="30" height="100" s:generic="body" class="cell_u_light_controller"/>
    <g transform="translate(0,10)" s:x="0" s:y="10" s:pid="in0" id="port_u_light_controller~clk">
      <text x="-3" y="-4" class="inputPortLabel cell_u_light_controller">clk</text>
    </g>
    <g transform="translate(0,30)" s:x="0" s:y="10" s:pid="in0" id="port_u_light_controller~maintenance">
      <text x="-3" y="-4" class="inputPortLabel cell_u_light_controller">maintenance</text>
    </g>
    <g transform="translate(0,50)" s:x="0" s:y="10" s:pid="in0" id="port_u_light_controller~phase">
      <text x="-3" y="-4" class="inputPortLabel cell_u_light_controller">phase</text>
    </g>
    <g transform="translate(0,70)" s:x="0" s:y="10" s:pid="in0" id="port_u_light_controller~rst">
      <text x="-3" y="-4" class="inputPortLabel cell_u_light_controller">rst</text>
    </g>
    <g transform="translate(0,90)" s:x="0" s:y="10" s:pid="in0" id="port_u_light_controller~timing_done">
      <text x="-3" y="-4" class="inputPortLabel cell_u_light_controller">timing_done</text>
    </g>
    <g transform="translate(30,10)" s:x="30" s:y="10" s:pid="out0" id="port_u_light_controller~current_state">
      <text x="5" y="-4" style="fill:#000; stroke:none" class="cell_u_light_controller">current_state</text>
    </g>
  </g>
  <g s:type="generic" transform="translate(414,237)" s:width="30" s:height="40" id="cell_u_phase_controller">
    <text x="15" y="-4" class="nodelabel cell_u_phase_controller" s:attribute="ref">phase_controller</text>
    <rect width="30" height="80" s:generic="body" class="cell_u_phase_controller"/>
    <g transform="translate(0,10)" s:x="0" s:y="10" s:pid="in0" id="port_u_phase_controller~clk">
      <text x="-3" y="-4" class="inputPortLabel cell_u_phase_controller">clk</text>
    </g>
    <g transform="translate(0,30)" s:x="0" s:y="10" s:pid="in0" id="port_u_phase_controller~light_state">
      <text x="-3" y="-4" class="inputPortLabel cell_u_phase_controller">light_state</text>
    </g>
    <g transform="translate(0,50)" s:x="0" s:y="10" s:pid="in0" id="port_u_phase_controller~priority">
      <text x="-3" y="-4" class="inputPortLabel cell_u_phase_controller">priority</text>
    </g>
    <g transform="translate(0,70)" s:x="0" s:y="10" s:pid="in0" id="port_u_phase_controller~rst">
      <text x="-3" y="-4" class="inputPortLabel cell_u_phase_controller">rst</text>
    </g>
    <g transform="translate(30,10)" s:x="30" s:y="10" s:pid="out0" id="port_u_phase_controller~current_phase">
      <text x="5" y="-4" style="fill:#000; stroke:none" class="cell_u_phase_controller">current_phase</text>
    </g>
  </g>
  <g s:type="generic" transform="translate(414,22)" s:width="30" s:height="40" id="cell_u_timing_controller">
    <text x="15" y="-4" class="nodelabel cell_u_timing_controller" s:attribute="ref">timing_controller</text>
    <rect width="30" height="60" s:generic="body" class="cell_u_timing_controller"/>
    <g transform="translate(0,10)" s:x="0" s:y="10" s:pid="in0" id="port_u_timing_controller~clk">
      <text x="-3" y="-4" class="inputPortLabel cell_u_timing_controller">clk</text>
    </g>
    <g transform="translate(0,30)" s:x="0" s:y="10" s:pid="in0" id="port_u_timing_controller~current_state">
      <text x="-3" y="-4" class="inputPortLabel cell_u_timing_controller">current_state</text>
    </g>
    <g transform="translate(0,50)" s:x="0" s:y="10" s:pid="in0" id="port_u_timing_controller~rst">
      <text x="-3" y="-4" class="inputPortLabel cell_u_timing_controller">rst</text>
    </g>
    <g transform="translate(30,10)" s:x="30" s:y="10" s:pid="out0" id="port_u_timing_controller~timing_done">
      <text x="5" y="-4" style="fill:#000; stroke:none" class="cell_u_timing_controller">timing_done</text>
    </g>
  </g>
  <g s:type="inputExt" transform="translate(12,85)" s:width="30" s:height="20" id="cell_clk">
    <text x="15" y="-4" class="nodelabel cell_clk" s:attribute="ref">clk</text>
    <s:alias val="$_inputExt_"/>
    <path d="M0,0 L0,20 L15,20 L30,10 L15,0 Z" class="cell_clk"/>
    <g s:x="28" s:y="10" s:pid="Y"/>
  </g>
  <g s:type="inputExt" transform="translate(12,309)" s:width="30" s:height="20" id="cell_rst">
    <text x="15" y="-4" class="nodelabel cell_rst" s:attribute="ref">rst</text>
    <s:alias val="$_inputExt_"/>
    <path d="M0,0 L0,20 L15,20 L30,10 L15,0 Z" class="cell_rst"/>
    <g s:x="28" s:y="10" s:pid="Y"/>
  </g>
  <g s:type="inputExt" transform="translate(12,150)" s:width="30" s:height="20" id="cell_maintenance">
    <text x="15" y="-4" class="nodelabel cell_maintenance" s:attribute="ref">maintenance</text>
    <s:alias val="$_inputExt_"/>
    <path d="M0,0 L0,20 L15,20 L30,10 L15,0 Z" class="cell_maintenance"/>
    <g s:x="28" s:y="10" s:pid="Y"/>
  </g>
  <g s:type="inputExt" transform="translate(185,277.5)" s:width="30" s:height="20" id="cell_priority">
    <text x="15" y="-4" class="nodelabel cell_priority" s:attribute="ref">priority</text>
    <s:alias val="$_inputExt_"/>
    <path d="M0,0 L0,20 L15,20 L30,10 L15,0 Z" class="cell_priority"/>
    <g s:x="28" s:y="10" s:pid="Y"/>
  </g>
  <g s:type="outputExt" transform="translate(414,130)" s:width="30" s:height="20" id="cell_light_state">
    <text x="15" y="-4" class="nodelabel cell_light_state" s:attribute="ref">light_state</text>
    <s:alias val="$_outputExt_"/>
    <path d="M30,0 L30,20 L15,20 L0,10 L15,0 Z" class="cell_light_state"/>
    <g s:x="0" s:y="10" s:pid="A"/>
  </g>
  <line x1="40" x2="98" y1="95" y2="95" class="net_2"/>
  <line x1="98" x2="98" y1="95" y2="140" class="net_2"/>
  <circle cx="98" cy="95" r="2" style="fill:#000" class="net_2"/>
  <line x1="98" x2="185" y1="140" y2="140" class="net_2"/>
  <line x1="40" x2="325" y1="95" y2="95" class="net_2"/>
  <line x1="325" x2="325" y1="95" y2="247.5" class="net_2"/>
  <line x1="325" x2="414" y1="247.5" y2="247.5" class="net_2"/>
  <line x1="40" x2="98" y1="95" y2="95" class="net_2"/>
  <line x1="98" x2="98" y1="95" y2="61.5" class="net_2"/>
  <line x1="98" x2="305" y1="61.5" y2="61.5" class="net_2"/>
  <line x1="305" x2="305" y1="61.5" y2="32.5" class="net_2"/>
  <line x1="305" x2="414" y1="32.5" y2="32.5" class="net_2"/>
  <line x1="40" x2="185" y1="160" y2="160" class="net_4"/>
  <line x1="445" x2="538" y1="247.5" y2="247.5" class="net_11,12"/>
  <line x1="538" x2="538" y1="247.5" y2="340" class="net_11,12"/>
  <line x1="538" x2="98" y1="340" y2="340" class="net_11,12"/>
  <line x1="98" x2="98" y1="340" y2="180" class="net_11,12"/>
  <line x1="98" x2="185" y1="180" y2="180" class="net_11,12"/>
  <line x1="40" x2="88" y1="319" y2="319" class="net_3"/>
  <line x1="88" x2="88" y1="319" y2="200" class="net_3"/>
  <circle cx="88" cy="319" r="2" style="fill:#000" class="net_3"/>
  <circle cx="88" cy="200" r="2" style="fill:#000" class="net_3"/>
  <line x1="88" x2="185" y1="200" y2="200" class="net_3"/>
  <line x1="40" x2="305" y1="319" y2="319" class="net_3"/>
  <line x1="305" x2="305" y1="319" y2="307.5" class="net_3"/>
  <line x1="305" x2="414" y1="307.5" y2="307.5" class="net_3"/>
  <line x1="40" x2="88" y1="319" y2="319" class="net_3"/>
  <line x1="88" x2="88" y1="319" y2="72.5" class="net_3"/>
  <line x1="88" x2="414" y1="72.5" y2="72.5" class="net_3"/>
  <line x1="445" x2="548" y1="32.5" y2="32.5" class="net_13"/>
  <line x1="548" x2="548" y1="32.5" y2="330" class="net_13"/>
  <line x1="548" x2="108" y1="330" y2="330" class="net_13"/>
  <line x1="108" x2="108" y1="330" y2="220" class="net_13"/>
  <line x1="108" x2="185" y1="220" y2="220" class="net_13"/>
  <line x1="216" x2="315" y1="140" y2="140" class="net_7,8,9,10"/>
  <line x1="315" x2="315" y1="140" y2="267.5" class="net_7,8,9,10"/>
  <circle cx="315" cy="140" r="2" style="fill:#000" class="net_7,8,9,10"/>
  <line x1="315" x2="414" y1="267.5" y2="267.5" class="net_7,8,9,10"/>
  <line x1="216" x2="315" y1="140" y2="140" class="net_7,8,9,10"/>
  <line x1="315" x2="315" y1="140" y2="52.5" class="net_7,8,9,10"/>
  <line x1="315" x2="414" y1="52.5" y2="52.5" class="net_7,8,9,10"/>
  <line x1="216" x2="414" y1="140" y2="140" class="net_7,8,9,10"/>
  <line x1="213" x2="414" y1="287.5" y2="287.5" class="net_5,6"/>
</svg>
